<svg width="60" height="60" viewBox="0 0 60 60" fill="none" xmlns="http://www.w3.org/2000/svg">
<g clip-path="url(#clip0_18_30)">
<path d="M58.1625 32.3108L34.954 1.36416C34.5054 0.769077 33.6923 0.584155 33.0331 0.931968L6.12396 15.1044L31.1802 48.5102L57.6553 34.563C58.0489 34.3561 58.3327 33.9881 58.428 33.5542C58.5269 33.1202 58.4299 32.6661 58.1625 32.3108Z" fill="black"/>
<path d="M57.2141 37.4634L30.9806 51.2164L31.3779 51.9763L57.6113 38.2215L57.2141 37.4634Z" fill="black"/>
<path d="M30.629 55.8124L57.7158 41.6089L57.3184 40.8491L30.2298 55.0543L30.629 55.8124Z" fill="black"/>
<path d="M57.7304 43.4767L28.7888 58.6432C27.9099 58.8665 28.1114 58.1799 28.1095 57.1051C28.1919 54.2157 28.8969 51.6907 29.6805 50.8649L4.62619 17.4592C3.5074 18.8013 2.54423 22.978 3.34076 27.5245L28.0838 60.5145C28.2633 60.7526 28.591 60.8258 28.8529 60.6867L57.9008 45.2986C58.159 45.1612 58.3366 44.9086 58.3787 44.6192C58.4171 44.3299 58.3182 44.0388 58.1059 43.8355L57.7304 43.4767Z" fill="black"/>
</g>
<defs>
<clipPath id="clip0_18_30">
<rect width="60" height="60" fill="white" transform="translate(0.757008 0.757008)"/>
</clipPath>
</defs>
</svg>
