<svg width="60" height="60" viewBox="0 0 60 60" fill="none" xmlns="http://www.w3.org/2000/svg">
<path d="M69.7005 18.582C69.5178 17.7697 69.2819 16.9615 69.009 16.17C68.75 15.4016 68.3939 14.6667 68.0586 13.9234C67.6609 13.0357 67.2469 12.1982 66.6572 11.3984C66.0722 10.6069 65.4293 9.84272 64.8234 9.05966C64.5922 8.75816 64.3077 8.5425 63.9562 8.39594C63.91 8.36453 63.8799 8.31847 63.829 8.29125C63.7574 8.25356 63.6787 8.23472 63.6024 8.20541C63.5747 7.50609 63.0798 6.83191 62.2959 6.65813C61.3593 6.45294 60.3765 6.41525 59.4168 6.36291C58.5774 6.31475 57.7379 6.28125 56.9008 6.27078C55.0855 6.23938 53.2679 6.25403 51.4525 6.24147C49.961 6.23519 48.4648 6.20797 46.9686 6.20797C46.6449 6.20797 46.3188 6.21006 45.995 6.21216C44.0849 6.22891 42.1794 6.23309 40.2739 6.24566C37.9938 6.25403 35.7183 6.28125 33.4428 6.28963C32.2704 6.29381 31.1002 6.28544 29.9301 6.27288C28.686 6.2645 27.4349 6.25194 26.1908 6.25613C25.5895 6.25822 25.0715 6.54716 24.7339 6.96381C24.6923 6.99522 24.6391 7.00778 24.6021 7.04547C23.906 7.71128 23.2239 8.45456 22.7359 9.26694C22.2503 10.0835 21.8826 10.9524 21.575 11.8318C21.027 13.3979 20.5506 15.0059 20.2245 16.6181C19.5424 20.0142 19.177 23.4563 18.7353 26.8838C18.4855 28.8288 18.2289 30.7739 17.9537 32.7211C17.5975 35.0661 17.1489 37.4007 16.5477 39.7038C16.2401 40.8721 15.9048 42.0341 15.4909 43.1773C15.0977 44.2765 14.6214 45.3548 14.1265 46.4205C13.7565 47.1848 13.3772 47.9678 12.8662 48.6671C12.8222 48.7111 12.8037 48.7676 12.7644 48.8158C12.7505 48.8158 12.7344 48.8158 12.7205 48.8158C10.8589 48.8158 8.99736 48.8242 7.13811 48.8514C6.65017 48.8598 6.20386 49.0419 5.87086 49.3308C5.20486 49.7245 4.84874 50.4657 5.06149 51.1922C5.28349 51.9606 5.45924 52.752 5.76217 53.4995C6.10674 54.3559 6.52067 55.1766 6.98086 55.9848C7.42255 56.7637 7.91742 57.4839 8.52561 58.1707C9.03436 58.7444 9.6333 59.228 10.2577 59.697C10.6369 59.9776 11.0208 60.1555 11.5064 60.1849C11.7585 60.2937 12.0337 60.367 12.3297 60.3733C16.3326 60.4591 20.3356 60.3335 24.3385 60.3084C28.2374 60.2833 32.1385 60.3 36.042 60.2791C38.0539 60.2665 40.0704 60.3 42.0846 60.3272C42.6905 60.3398 43.3033 60.3398 43.9138 60.3356C45.1533 60.3314 46.4044 60.3314 47.6392 60.4277C47.6647 60.4298 47.6878 60.4152 47.7132 60.4173C48.4232 60.9177 49.5679 60.9574 50.1922 60.3105C50.8652 59.607 51.4942 58.8553 52.0445 58.0681C52.6157 57.2515 52.9996 56.3554 53.3835 55.4572C54.0402 53.9308 54.6022 52.3354 54.9629 50.7295C55.7538 47.2476 56.2741 43.7112 56.7042 40.177C56.8453 39.0045 56.9887 37.832 57.1552 36.6616C57.4697 34.6746 57.8142 32.6918 58.1125 30.7028C58.5288 27.9851 59.0375 25.282 59.685 22.5978C59.8423 21.9467 60.0065 21.2955 60.1799 20.6465C60.1869 20.6528 60.1892 20.6611 60.1938 20.6653C60.5199 20.9605 61.0541 21.2076 61.5327 21.1657C63.4614 20.9961 65.383 20.8914 67.3209 20.7909C67.5799 20.7784 67.8251 20.7177 68.0517 20.6255C68.1835 20.6213 68.3176 20.636 68.4471 20.6025C69.4322 20.3513 69.9017 19.4593 69.7005 18.582ZM36.3681 57.0149C32.4762 56.994 28.5865 57.0065 24.6946 56.994C22.6642 56.9856 20.6385 56.994 18.6081 56.9814C16.5592 56.9688 14.5057 56.8977 12.4569 56.8349C12.0129 56.4915 11.5874 56.1397 11.1965 55.7398C10.5167 54.8835 9.97555 53.9392 9.5038 52.9761C9.39048 52.6913 9.30261 52.4045 9.2078 52.1176C10.4959 52.0841 11.7839 52.0485 13.0697 52.015C14.9428 51.9669 16.8275 51.9711 18.7006 51.9711C22.3544 51.9753 26.0174 52.0108 29.6688 52.1763C33.6185 52.3479 37.5799 52.4505 41.5296 52.6871C41.636 53.02 41.7354 53.355 41.851 53.6838C42.11 54.4061 42.4569 55.1012 42.8246 55.788C43.0605 56.2339 43.3334 56.6443 43.627 57.0463C43.1368 57.0421 42.6465 57.04 42.1563 57.0359C40.223 57.0275 38.2967 57.0275 36.3681 57.0149ZM56.9956 18.9191C56.0359 22.3047 55.2728 25.7259 54.6877 29.1806C54.4819 30.4013 54.2992 31.624 54.0934 32.8405C53.9015 33.9627 53.6911 35.0871 53.5176 36.2093C53.1337 38.6925 52.8979 41.182 52.5556 43.6631C52.255 45.6228 51.9058 47.5784 51.4711 49.5214C51.0294 51.4916 50.3194 53.4241 49.4915 55.2918C49.1678 55.9073 48.7608 56.4664 48.333 57.0212C48.2035 56.8704 48.0763 56.7176 47.8959 56.6129C47.5282 56.3177 47.2068 55.9911 46.8969 55.6477C46.4044 55.0175 46.039 54.3433 45.6967 53.6461C45.299 52.6892 45.0354 51.6905 44.744 50.7064C44.737 50.6855 44.7232 50.6708 44.7162 50.652C44.6677 50.5054 44.5983 50.3756 44.5104 50.2521C44.4873 50.2207 44.4665 50.1935 44.441 50.1642C44.3416 50.0469 44.2352 49.9422 44.1034 49.8522C44.0595 49.8208 44.0109 49.7978 43.9624 49.7684C43.8398 49.6994 43.7172 49.6324 43.5785 49.5863C43.5114 49.5633 43.4397 49.557 43.3704 49.5423C43.2455 49.5151 43.1299 49.4711 42.9981 49.4628C42.1239 49.4146 41.2498 49.4104 40.3734 49.3769C39.4368 49.3371 38.5002 49.2953 37.5567 49.268C35.7275 49.2157 33.8984 49.1864 32.0692 49.1068C30.27 49.0294 28.4732 48.9205 26.6695 48.8849C24.8657 48.8493 23.0643 48.8283 21.2559 48.8283C19.7505 48.8283 18.2427 48.8242 16.7373 48.8179C16.7928 48.7048 16.8575 48.5876 16.913 48.4766C17.3316 47.6517 17.69 46.8037 18.0508 45.9599C18.7122 44.3959 19.2602 42.8214 19.7297 41.205C20.6709 37.945 21.2744 34.6243 21.7254 31.2827C22.1717 27.9704 22.5301 24.6518 22.9857 21.3416C23.2354 19.6917 23.5083 18.046 23.876 16.4108C24.0587 15.5984 24.3269 14.7944 24.572 13.9946C24.8172 13.2095 25.0877 12.4369 25.4022 11.6748C25.6589 11.1785 25.9595 10.72 26.3134 10.2698C26.5354 10.0291 26.7712 9.79666 27.0094 9.56634C30.6817 9.50563 34.3493 9.39256 38.0169 9.34022C39.9455 9.31091 41.8719 9.30463 43.8005 9.30672C45.7014 9.31091 47.5976 9.36325 49.4985 9.40722C51.4479 9.45119 53.3974 9.4805 55.3445 9.48888C57.102 9.49306 58.8572 9.53075 60.6031 9.70872C60.6702 9.71919 60.7372 9.73175 60.8043 9.74222C59.9857 11.0655 59.2549 12.4306 58.686 13.8606C58.027 15.5252 57.4812 17.2106 56.9956 18.9191ZM60.9916 17.845C61.3986 16.5783 61.8495 15.3221 62.3837 14.093C62.6196 13.624 62.8809 13.1697 63.1446 12.7174C63.1908 12.7719 63.2347 12.8284 63.2787 12.8828C63.762 13.4775 64.1459 14.0972 64.4789 14.7672C64.798 15.454 65.1125 16.1407 65.3854 16.84C65.4755 17.0724 65.5287 17.3153 65.6097 17.5519C64.2453 17.5833 62.8832 17.6398 61.5258 17.7466C61.3339 17.7592 61.1627 17.8011 60.9916 17.845Z" fill="#111918"/>
<path d="M48.8173 21.086L47.4114 21.1176L47.3693 19.2431L45.0261 19.2958L45.0682 21.1703L29.1348 21.5283L29.0926 19.6538L26.7495 19.7065L26.7916 21.581L25.3857 21.6126C24.7643 21.6266 24.1738 21.8868 23.7443 22.3361C23.3147 22.7854 23.0812 23.387 23.0952 24.0084L23.4954 41.8164C23.5094 42.4379 23.7696 43.0283 24.2189 43.4579C24.6682 43.8874 25.2698 44.1209 25.8912 44.1069L49.3228 43.5804C49.9442 43.5664 50.5347 43.3061 50.9642 42.8568C51.3938 42.4075 51.6273 41.806 51.6133 41.1846L51.2131 23.3765C51.1991 22.7551 50.9389 22.1647 50.4896 21.7351C50.0403 21.3056 49.4387 21.0721 48.8173 21.086ZM25.4384 23.9558L48.8699 23.4292L48.9226 25.7724L25.491 26.2989L25.4384 23.9558ZM25.8385 41.7638L25.5437 28.6421L48.9753 28.1155L49.2701 41.2372L25.8385 41.7638Z" fill="black"/>
<path d="M27.9606 31.8698L30.0226 31.8235L30.0731 34.0729L28.0111 34.1193L27.9606 31.8698ZM28.0617 36.3687L30.1236 36.3224L30.1742 38.5718L28.1122 38.6181L28.0617 36.3687ZM44.4564 31.4991L46.5184 31.4528L46.5689 33.7022L44.507 33.7486L44.4564 31.4991ZM44.5575 35.998L46.6195 35.9517L46.67 38.2011L44.6081 38.2474L44.5575 35.998ZM40.3324 31.5918L42.3944 31.5455L42.445 33.7949L40.383 33.8413L40.3324 31.5918ZM40.4335 36.0907L42.4955 36.0443L42.5461 38.2938L40.4841 38.3401L40.4335 36.0907ZM36.2085 31.6845L38.2705 31.6382L38.321 33.8876L36.259 33.9339L36.2085 31.6845ZM36.3096 36.1834L38.3716 36.137L38.4221 38.3865L36.3601 38.4328L36.3096 36.1834ZM32.0845 31.7772L34.1465 31.7308L34.1971 33.9803L32.1351 34.0266L32.0845 31.7772ZM32.1856 36.276L34.2476 36.2297L34.2982 38.4791L32.2362 38.5255L32.1856 36.276Z" fill="black"/>
</svg>
