<svg width="60" height="60" viewBox="0 0 60 65" fill="none" xmlns="http://www.w3.org/2000/svg">
<path d="M38.3169 27.896H35.2095V24.9256H31.5537V27.896H28.4472V24.9256H24.7906V27.896H21.6831V24.9256H18.0283V31.8565H19.1248H21.6831H24.7906H25.8879H28.4472H31.5537H35.2095H38.3169H41.9726V27.896V24.9256H38.3169V27.896Z" fill="black"/>
<path d="M18.0283 49.4311H27.4736V43.4364C27.4736 41.8572 28.6559 40.5764 30.1145 40.5764C31.573 40.5764 32.7554 41.8574 32.7554 43.4364V49.4311H41.9725V33.6382H18.0283V49.4311Z" fill="black"/>
<path d="M13.5263 18.5404H10.4188V15.5689H6.76395V18.5404H3.65648V15.5689H0V22.5007H1.09723H3.65648H6.76395H10.4188H13.5263H17.1829V18.5404V15.5689H13.5263V18.5404Z" fill="black"/>
<path d="M0.800049 49.4311H16.3828V24.2825H0.800049V49.4311ZM7.2204 28.6461H9.96235V34.2896H7.2204V28.6461Z" fill="black"/>
<path d="M56.3442 15.5689V18.5404H53.2369V15.5689H49.5812V18.5404H46.4738V15.5689H42.818V22.5007H43.9153H46.4738H49.5812H53.2369H56.3442H60V18.5404V15.5689H56.3442Z" fill="black"/>
<path d="M43.6173 49.4311H59.2V24.2825H43.6173V49.4311ZM50.0377 28.6461H52.7796V34.2896H50.0377V28.6461Z" fill="black"/>
</svg>
