<svg width="61" height="61" viewBox="0 0 61 61" fill="none" xmlns="http://www.w3.org/2000/svg">
<g clip-path="url(#clip0_18_38)">
<path d="M49.6459 6.41426H51.9916V0.757072H9.52225V6.41426H11.8682V7.8823C11.8682 17.0985 15.0223 25.5511 20.217 30.5659C15.0223 35.5817 11.8682 44.0336 11.8682 53.2502V55.0999H9.52225V60.7569H51.9916V55.0999H49.6459V53.2502C49.6459 44.0336 46.4914 35.5818 41.2972 30.5659C46.4914 25.5511 49.6459 17.0999 49.6459 7.8823V6.41426ZM37.3406 29.0902L35.3927 30.5659L37.3406 32.0416C42.2016 35.7279 45.4642 43.1917 45.895 51.3984H15.6199C16.0505 43.1925 19.3116 35.7287 24.1741 32.0416L26.1209 30.5659L24.1741 29.0902C19.3124 25.4035 16.0505 17.9408 15.6199 9.7341H45.8938C45.4642 17.9408 42.2015 25.4035 37.3406 29.0902ZM19.5229 12.6768H41.9909C41.6661 18.908 39.1881 24.5756 35.4944 27.3747C35.4944 27.3747 34.862 27.6478 34.0174 28.4944C32.27 30.9897 32.1768 40.1109 32.1739 40.513C33.4284 40.6469 34.7838 41.1764 36.1271 42.4033C40.8663 46.7333 42.2414 47.244 42.4068 50.3874H20.1852C20.3504 47.2448 23.0467 44.9958 26.4645 42.4033C26.4645 42.4033 28.0905 40.9762 30.3711 40.5803C30.3296 40.5086 30.3053 40.4602 30.3053 40.4602C30.3053 31.8688 27.4964 28.1849 27.4964 28.1849L25.4998 27.0652C21.8073 24.2643 19.8487 18.9081 19.5229 12.6768Z" fill="black"/>
</g>
<defs>
<clipPath id="clip0_18_38">
<rect width="60" height="60" fill="white" transform="translate(0.757008 0.757008)"/>
</clipPath>
</defs>
</svg>
