<svg width="60" height="60" viewBox="0 0 60 60" fill="none" xmlns="http://www.w3.org/2000/svg">
<path d="M55.3757 44.2493C55.0004 45.7507 55.0004 51.0004 55.3757 52.8754C56.1246 53.6243 56.4994 54.3744 56.5 55.1257V57.0007C56.5 58.8757 55.0004 60 53.5007 60H15.25C8.87427 60 4 55.1257 4 48.75V11.25C4 4.87427 8.87427 0 15.25 0H53.5007C55.3757 0 56.5 1.12427 56.5 2.99927V42.0007C56.5 43.125 56.1252 43.8745 55.3757 44.2493ZM48.6246 45H15.25C13.375 45 11.5 46.4996 11.5 48.75C11.5 51.0004 12.9996 52.5 15.25 52.5H48.6246V45ZM19.0018 20.6268C19.0018 20.6873 19.0183 20.7422 19.0183 20.8026L23.3671 24.6075C23.5104 24.7332 23.612 24.8995 23.6584 25.0844C23.7048 25.2692 23.6938 25.4638 23.6267 25.6422C23.5597 25.8207 23.4399 25.9744 23.2833 26.083C23.1266 26.1916 22.9406 26.2498 22.75 26.25H22.7482C22.5238 26.2386 22.3087 26.1573 22.1329 26.0175L19.368 23.5986C20.7212 29.4086 25.9031 33.75 32.125 33.75C38.3469 33.75 43.5288 29.4086 44.8838 23.5986L42.1189 26.0175C41.9478 26.1662 41.7286 26.2482 41.5018 26.2482H41.5C41.2335 26.2334 40.9822 26.1198 40.795 25.9296C40.6554 25.753 40.5742 25.5373 40.5625 25.3125C40.5772 25.0457 40.6915 24.7941 40.8829 24.6075L45.2317 20.8026C45.2335 20.7404 45.25 20.6854 45.25 20.625C45.25 19.3304 45.0046 18.1036 44.6567 16.9226L42.1647 19.4128C41.9889 19.5888 41.7504 19.6878 41.5016 19.6879C41.2528 19.6881 41.0142 19.5894 40.8382 19.4136C40.6622 19.2379 40.5632 18.9994 40.563 18.7506C40.5628 18.5019 40.6614 18.2632 40.8372 18.0872L43.9335 14.9927C42.7621 12.5535 40.8643 10.5367 38.5007 9.21936C39.4613 10.7548 39.8242 12.5898 39.5203 14.3753C39.2165 16.1608 38.2672 17.7725 36.8528 18.9038C37.6647 19.7452 38.2363 20.7888 38.5082 21.9261C38.78 23.0633 38.7422 24.2526 38.3986 25.3702C38.0551 26.4879 37.4183 27.4931 36.5546 28.2812C35.6908 29.0693 34.6317 29.6116 33.4873 29.8517L33.3207 25.8344L34.8057 26.8451C34.8834 26.898 34.9753 26.9261 35.0693 26.9257C35.1522 26.9262 35.2337 26.9047 35.3054 26.8633C35.3772 26.8219 35.4366 26.7621 35.4776 26.6902C35.5187 26.6182 35.5398 26.5366 35.5388 26.4538C35.5378 26.371 35.5148 26.2899 35.4722 26.2189L34.4724 24.5416L36.5708 24.1058C36.6764 24.0838 36.7711 24.0261 36.8392 23.9424C36.9072 23.8587 36.9443 23.7541 36.9443 23.6462C36.9443 23.5384 36.9072 23.4338 36.8392 23.3501C36.7711 23.2664 36.6764 23.2087 36.5708 23.1866L34.4724 22.7509L35.4722 21.0736C35.5148 21.0026 35.5378 20.9215 35.5388 20.8387C35.5398 20.7559 35.5187 20.6743 35.4776 20.6023C35.4366 20.5303 35.3772 20.4706 35.3054 20.4292C35.2337 20.3878 35.1522 20.3663 35.0693 20.3668C34.9762 20.3705 34.8855 20.3975 34.8057 20.4456L33.1431 21.5771L32.5938 8.41736C32.5884 8.2966 32.5367 8.18255 32.4494 8.09898C32.3621 8.0154 32.2459 7.96875 32.125 7.96875C32.0041 7.96875 31.8879 8.0154 31.8006 8.09898C31.7133 8.18255 31.6616 8.2966 31.6562 8.41736L31.1143 21.4032L29.708 20.4474C29.6197 20.3875 29.5136 20.3595 29.4073 20.368C29.3009 20.3765 29.2006 20.421 29.1229 20.4942C29.0453 20.5674 28.9949 20.6648 28.9801 20.7705C28.9653 20.8762 28.9869 20.9837 29.0415 21.0754L30.0413 22.7527L27.9429 23.1885C27.8373 23.2103 27.7426 23.2678 27.6745 23.3514C27.6065 23.4349 27.5693 23.5394 27.5693 23.6472C27.5693 23.7549 27.6065 23.8594 27.6745 23.9429C27.7426 24.0265 27.8373 24.084 27.9429 24.1058L30.0413 24.5435L29.0415 26.2189C29.0016 26.2928 28.9791 26.3748 28.9756 26.4587C28.9826 26.586 29.0345 26.7067 29.1221 26.7993C29.2092 26.8816 29.3245 26.9274 29.4443 26.9275C29.5382 26.927 29.6299 26.899 29.708 26.8469L30.922 26.0211L30.7627 29.8553C29.6182 29.6148 28.559 29.0721 27.6953 28.2836C26.8316 27.4951 26.1948 26.4897 25.8513 25.3718C25.5078 24.2539 25.47 23.0643 25.7418 21.9269C26.0137 20.7894 26.5853 19.7455 27.3972 18.9038C25.9824 17.7723 25.0329 16.1602 24.7294 14.3742C24.4258 12.5882 24.7895 10.7529 25.7511 9.21753C23.3874 10.5353 21.4891 12.5519 20.3165 14.9908L23.4128 18.0872C23.5879 18.2631 23.6861 18.5013 23.6858 18.7495C23.6855 18.9977 23.5867 19.2357 23.4112 19.4112C23.2357 19.5867 22.9977 19.6855 22.7495 19.6858C22.5013 19.6861 22.2631 19.5879 22.0872 19.4128L19.5951 16.9208C19.2454 18.1036 19 19.3304 19.0018 20.6268Z" fill="black"/>
</svg>
