<svg width="60" height="60" viewBox="0 0 60 60" fill="none" xmlns="http://www.w3.org/2000/svg">
<path d="M12.7029 3.09349C11.6673 3.09349 10.8498 3.91123 10.8498 4.94646C10.8498 5.80873 11.417 6.51994 12.2048 6.73357L14.9158 13.2258C13.4372 14.0887 12.2129 15.5519 11.3803 17.6236L8.28279 19.9465L9.5974 21.697L10.5556 20.9781C14.2731 18.504 19.04 16.2921 23.4603 15.1216L26.6627 14.6437L26.3369 12.4758L22.4353 13.0596C20.9107 12.4787 19.4878 12.228 18.2033 12.2853C17.7732 12.3045 17.3593 12.358 16.9611 12.4417L14.2555 5.96072C14.443 5.67009 14.5522 5.32369 14.5522 4.94634C14.5522 3.91076 13.7383 3.09326 12.7027 3.09326L12.7029 3.09349ZM21.7113 17.9836C19.6354 18.6996 17.5033 19.6152 15.515 20.6386L23.5315 39.978L25.2453 39.059L28.5594 34.518L21.7115 17.9836H21.7113ZM41.527 31.0535L33.5436 31.4089L26.8678 40.5495L26.7213 40.7509L26.5016 40.8719L18.8477 44.977L15.5114 58.71H55.9704L54.2126 51.2468L34.811 44.838L35.4994 42.7579L46.0351 46.237L41.5269 31.0538L41.527 31.0535Z" fill="black"/>
</svg>
