<svg width="60" height="60" viewBox="0 0 60 60" fill="none" xmlns="http://www.w3.org/2000/svg">
<path d="M23.1733 3.56016L22.0134 7.18184L17.2691 9.31394L13.8952 12.6016L17.5111 16.7632L23.0758 16.2246L27.3016 17.2031L30.9145 13.275L30.4149 6.63047L23.1733 3.56016ZM3.03536 15.6234C1.45661 18.6653 2.25431 23.5233 6.59271 26.9609C10.9333 30.4003 15.8279 30.0541 18.4117 27.8073L3.03536 15.6234ZM45.1261 23.7082L41.1239 25.0418L41.9696 27.5789L15.2977 44.9156C16.7658 45.426 18.0418 46.3512 18.9852 47.5505L43.3481 31.7145L47.6024 44.4777C49.5625 44.5262 51.3518 45.2823 52.7234 46.5008L45.1262 23.7081L45.1261 23.7082ZM20.0958 29.141C18.9991 30.2025 17.6001 30.9486 16.0345 31.3342L23.4754 37.0839L27.2226 34.6488L20.0958 29.1415V29.141ZM34.2961 40.1145L30.5489 42.5501L37.2075 47.6953H40.9789C41.3652 47.1809 41.8114 46.7136 42.3074 46.3049L34.2961 40.1145ZM12.6757 46.582C9.39478 46.582 6.75771 49.2191 6.75771 52.5C6.75771 55.7809 9.39478 58.418 12.6757 58.418C15.9566 58.418 18.5936 55.7809 18.5936 52.5C18.5936 49.2191 15.9566 46.582 12.6757 46.582ZM47.4023 46.582C44.1214 46.582 41.4843 49.2191 41.4843 52.5C41.4843 55.7809 44.1214 58.418 47.4023 58.418C50.6832 58.418 53.3203 55.7809 53.3203 52.5C53.3203 49.2191 50.6832 46.582 47.4023 46.582ZM2.92966 49.8047V55.1953H5.11638C4.81403 54.352 4.64833 53.4449 4.64833 52.5C4.64833 51.5551 4.81415 50.648 5.11638 49.8047H2.92966ZM20.235 49.8047C20.5373 50.648 20.703 51.5551 20.703 52.5C20.703 53.4449 20.5372 54.352 20.235 55.1953H39.843C39.5407 54.352 39.375 53.4449 39.375 52.5C39.375 51.5551 39.5408 50.648 39.843 49.8047H20.235ZM54.9616 49.8047C55.264 50.648 55.4297 51.5551 55.4297 52.5C55.4297 53.4449 55.2638 54.352 54.9616 55.1953H57.0703V49.8047H54.9616ZM12.6757 50.1757C12.9809 50.1757 13.2832 50.2358 13.5652 50.3526C13.8472 50.4694 14.1034 50.6406 14.3192 50.8564C14.5351 51.0723 14.7063 51.3285 14.8231 51.6105C14.9399 51.8925 15 52.1948 15 52.5C15 52.8052 14.9399 53.1075 14.8231 53.3895C14.7063 53.6715 14.5351 53.9277 14.3192 54.1436C14.1034 54.3594 13.8472 54.5306 13.5652 54.6474C13.2832 54.7642 12.9809 54.8243 12.6757 54.8243C12.3705 54.8243 12.0682 54.7641 11.7863 54.6473C11.5043 54.5305 11.2481 54.3593 11.0323 54.1435C10.8165 53.9276 10.6453 53.6714 10.5285 53.3894C10.4117 53.1074 10.3516 52.8052 10.3516 52.5C10.3516 52.1948 10.4117 51.8926 10.5285 51.6106C10.6453 51.3286 10.8165 51.0724 11.0323 50.8565C11.2481 50.6407 11.5043 50.4695 11.7863 50.3527C12.0682 50.2358 12.3705 50.1757 12.6757 50.1757ZM47.4023 50.1757C47.7076 50.1757 48.0098 50.2358 48.2918 50.3526C48.5738 50.4694 48.83 50.6406 49.0459 50.8564C49.2617 51.0723 49.4329 51.3285 49.5497 51.6105C49.6665 51.8925 49.7266 52.1948 49.7266 52.5C49.7266 52.8052 49.6665 53.1075 49.5497 53.3895C49.4329 53.6715 49.2617 53.9277 49.0459 54.1436C48.83 54.3594 48.5738 54.5306 48.2918 54.6474C48.0098 54.7642 47.7076 54.8243 47.4023 54.8243C47.0971 54.8243 46.7948 54.7642 46.5128 54.6474C46.2308 54.5306 45.9746 54.3594 45.7588 54.1436C45.5429 53.9277 45.3717 53.6715 45.2549 53.3895C45.1381 53.1075 45.078 52.8052 45.078 52.5C45.078 52.1948 45.1381 51.8925 45.2549 51.6105C45.3717 51.3285 45.5429 51.0723 45.7588 50.8564C45.9746 50.6406 46.2308 50.4694 46.5128 50.3526C46.7948 50.2358 47.0971 50.1757 47.4023 50.1757Z" fill="black"/>
</svg>
