<svg width="61" height="61" viewBox="0 0 61 61" fill="none" xmlns="http://www.w3.org/2000/svg">
<g clip-path="url(#clip0_18_42)">
<path d="M15.666 43.8216C15.3655 43.2342 14.6458 43.0016 14.0586 43.3023C13.4714 43.6028 13.2388 44.3223 13.5393 44.9097C13.9982 45.8067 14.5325 46.6755 15.1273 47.4915C15.3612 47.8123 15.7248 47.9826 16.0933 47.9826C16.3372 47.9826 16.5838 47.9081 16.7959 47.7533C17.3291 47.3649 17.4461 46.6177 17.0577 46.0845C16.5365 45.3688 16.0683 44.6075 15.666 43.8216Z" fill="black"/>
<path d="M25.3467 18.7628C25.109 18.1474 24.4175 17.8412 23.8024 18.0784C22.8621 18.4413 21.9425 18.882 21.0691 19.3889C20.4985 19.72 20.3045 20.4507 20.6356 21.0214C20.8573 21.4033 21.2578 21.6166 21.6699 21.6166C21.8734 21.6166 22.0796 21.5646 22.2681 21.4552C23.0332 21.0113 23.8387 20.6251 24.6623 20.3074C25.2777 20.0697 25.5841 19.3784 25.3467 18.7628Z" fill="black"/>
<path d="M35.9989 52.2313C35.1588 52.5043 34.2897 52.7126 33.4162 52.8502C32.7645 52.9527 32.3195 53.5642 32.422 54.2156C32.5147 54.8044 33.0225 55.2244 33.6004 55.2244C33.662 55.2244 33.7248 55.2196 33.7876 55.2096C34.7854 55.0526 35.7779 54.8147 36.7375 54.5027C37.3648 54.2987 37.7081 53.6249 37.5041 52.9976C37.3001 52.3703 36.6264 52.0268 35.9989 52.2313Z" fill="black"/>
<path d="M47.8147 42.4027C47.2115 42.1337 46.5059 42.4049 46.2374 43.0073C45.8779 43.814 45.4505 44.5997 44.9673 45.3423C44.6078 45.8953 44.7642 46.6351 45.3172 46.9949C45.5184 47.1255 45.7441 47.1881 45.9675 47.1881C46.358 47.1881 46.7409 46.9968 46.9698 46.6449C47.5211 45.7974 48.0089 44.9006 48.4193 43.9798C48.6878 43.3773 48.4171 42.6712 47.8147 42.4027Z" fill="black"/>
<path d="M28.9934 52.9668C28.1119 52.8758 27.2326 52.7143 26.3806 52.4869C25.7439 52.3175 25.0887 52.6956 24.9186 53.333C24.7486 53.9703 25.1276 54.6248 25.7647 54.7949C26.7379 55.0543 27.7414 55.2387 28.7476 55.3429C28.7894 55.3472 28.8307 55.3493 28.8718 55.3493C29.4762 55.3493 29.995 54.8919 30.0585 54.2777C30.1264 53.6215 29.6496 53.0346 28.9934 52.9668Z" fill="black"/>
<path d="M42.0938 48.705C41.4365 49.2976 40.7275 49.8425 39.9867 50.3248C39.434 50.6845 39.2775 51.4246 39.6375 51.9773C39.8663 52.329 40.249 52.5201 40.6396 52.5201C40.8629 52.5201 41.0889 52.4575 41.29 52.3263C42.1349 51.7765 42.9433 51.1549 43.6931 50.4794C44.1831 50.0377 44.2225 49.2826 43.7808 48.7924C43.3391 48.3025 42.5838 48.2633 42.0938 48.705Z" fill="black"/>
<path d="M47.6967 36.0785V36.1179C47.6967 37.0065 47.6274 37.8982 47.4908 38.7684C47.3885 39.4201 47.8338 40.0314 48.4855 40.1336C48.5483 40.1437 48.6106 40.1482 48.6723 40.1482C49.2501 40.1482 49.7582 39.7278 49.8506 39.1389C50.0064 38.1464 50.0854 37.13 50.0854 36.1071V36.0785C50.0854 35.4189 49.5506 34.8841 48.8911 34.8841C48.2315 34.8841 47.6967 35.4189 47.6967 36.0785Z" fill="black"/>
<path d="M43.9028 25.4332C44.1389 25.7232 44.4828 25.8737 44.8299 25.8737C45.0948 25.8737 45.3617 25.786 45.5831 25.6056C46.0948 25.1893 46.1719 24.4371 45.7556 23.9254C45.1187 23.1431 44.4155 22.4047 43.6649 21.7306C43.1743 21.2899 42.419 21.3307 41.9782 21.8214C41.5375 22.3123 41.5783 23.0673 42.069 23.5081C42.7273 24.0993 43.3444 24.7469 43.9028 25.4332Z" fill="black"/>
<path d="M35.1953 18.4898C34.9928 19.1175 35.3375 19.7907 35.9652 19.9932C36.8066 20.2648 37.6333 20.6057 38.4221 21.0068C38.5955 21.0949 38.7804 21.1367 38.9624 21.1367C39.3976 21.1367 39.8173 20.8979 40.028 20.4834C40.3269 19.8953 40.0928 19.1763 39.5047 18.8775C38.6039 18.4195 37.6598 18.0302 36.6988 17.7199C36.0713 17.5178 35.3979 17.862 35.1953 18.4898Z" fill="black"/>
<path d="M47.1145 31.6977C47.2581 32.2304 47.7404 32.5815 48.2671 32.5815C48.3701 32.5815 48.4745 32.5682 48.5786 32.54C49.2155 32.3685 49.5926 31.713 49.4209 31.0759C49.1581 30.1013 48.8156 29.1401 48.4026 28.2185C48.1326 27.6165 47.4258 27.347 46.8241 27.6172C46.2221 27.8871 45.9531 28.5937 46.2228 29.1957C46.5847 30.0026 46.8847 30.8444 47.1145 31.6977Z" fill="black"/>
<path d="M22.2962 50.7966C21.5306 50.3542 20.7937 49.8475 20.1055 49.2902C19.5929 48.8751 18.8407 48.9541 18.4257 49.4668C18.0106 49.9794 18.0896 50.7316 18.6023 51.1465C19.3872 51.7822 20.2278 52.3603 21.1011 52.8645C21.2894 52.9735 21.4948 53.0251 21.6976 53.0251C22.1104 53.0251 22.5117 52.811 22.7329 52.4279C23.0628 51.8572 22.8674 51.1267 22.2962 50.7966Z" fill="black"/>
<path d="M15.3712 26.4412C15.5831 26.5953 15.8287 26.6694 16.0721 26.6694C16.4414 26.6694 16.8059 26.4986 17.0395 26.1766C17.5591 25.4611 18.1396 24.7803 18.7652 24.1535C19.231 23.6865 19.23 22.9302 18.763 22.4644C18.296 21.9986 17.54 21.9996 17.0739 22.4666C16.3611 23.1813 15.6992 23.9574 15.1068 24.7734C14.7188 25.3068 14.8373 26.0538 15.3712 26.4412Z" fill="black"/>
<path d="M12.7656 33.5354C12.8484 33.5528 12.9311 33.5612 13.0126 33.5612C13.5656 33.5612 14.0619 33.1749 14.1802 32.6124C14.3622 31.7464 14.6149 30.8886 14.9312 30.0628C15.167 29.4468 14.8588 28.7562 14.243 28.5202C13.6267 28.2846 12.9364 28.5925 12.7003 29.2084C12.3392 30.1517 12.0506 31.1316 11.8425 32.1205C11.7066 32.7664 12.1199 33.3997 12.7656 33.5354Z" fill="black"/>
<path d="M14.1876 39.6575C14.0044 38.7954 13.8878 37.909 13.8412 37.0227C13.8063 36.3641 13.244 35.8623 12.5857 35.8928C11.9269 35.9275 11.4212 36.4898 11.4558 37.1484C11.5091 38.1588 11.6419 39.1702 11.8511 40.1542C11.9706 40.7158 12.4662 41.1004 13.0183 41.1004C13.1005 41.1004 13.1841 41.0918 13.2677 41.0741C13.9129 40.937 14.3247 40.3027 14.1876 39.6575Z" fill="black"/>
<path d="M54.8716 25.3871L41.4878 12.0031C41.1519 11.667 40.6962 11.4783 40.221 11.4783H32.5486V2.54858C32.5486 1.55915 31.7464 0.757008 30.757 0.757008C29.7676 0.757008 28.9654 1.55915 28.9654 2.54858V5.94182L28.0782 11.4783H21.2932C20.8181 11.4783 20.3623 11.667 20.0264 12.0031L6.64268 25.3871C6.30658 25.7229 6.11787 26.1787 6.11787 26.6538V45.5814C6.11787 46.0566 6.30658 46.5123 6.64268 46.8482L20.0264 60.2322C20.3623 60.5683 20.8181 60.757 21.2932 60.757H40.221C40.6962 60.757 41.1519 60.5683 41.4878 60.2322L54.8716 46.8482C55.2077 46.5123 55.3964 46.0566 55.3964 45.5814V26.6538C55.3964 26.1787 55.2077 25.7229 54.8716 25.3871ZM51.8132 44.8395L39.4789 57.1739H22.0352L9.70078 44.8395V27.396L22.0352 15.0616H27.5042L24.6955 32.5911C24.5911 33.2425 25.0345 33.855 25.6859 33.9594C25.7499 33.9697 25.8135 33.9747 25.8763 33.9747C26.4527 33.9747 26.9601 33.5564 27.0542 32.969L28.9654 21.0407V36.1179C28.9654 37.1073 29.7676 37.9094 30.757 37.9094C31.7464 37.9094 32.5486 37.1073 32.5486 36.1179V18.8151C32.733 18.6164 32.8548 18.3579 32.8694 18.0657C32.8861 17.7299 32.7612 17.4205 32.5486 17.1924V15.0612H39.4789L51.8132 27.3955V44.8395Z" fill="black"/>
</g>
<defs>
<clipPath id="clip0_18_42">
<rect width="60" height="60" fill="white" transform="translate(0.757008 0.757008)"/>
</clipPath>
</defs>
</svg>
