<svg width="60" height="60" viewBox="0 0 60 60" fill="none" xmlns="http://www.w3.org/2000/svg">
<g clip-path="url(#clip0_1_19)">
<path d="M4.58375 60V59.0606C4.58375 41.2875 4.57063 23.5238 4.625 5.75439C4.625 3.64876 4.04375 1.93689 2.49687 0.536263C2.33937 0.391888 2.20625 0.223138 2 -0.00186157H58.6456C58.3644 0.290638 58.1469 0.534388 57.9106 0.761263C56.5869 2.02876 56.0075 3.55126 56.0094 5.40751C56.0431 23.3113 56.0519 41.2113 56.0356 59.1075V59.9944L30.3125 47.1356L4.58375 60ZM7.66062 3.00189V55.0031L30.305 43.4269L52.9494 55.0031V3.00189H7.66062Z" fill="black"/>
<path d="M41.5938 29.1169H18.3306C18.0775 28.23 17.815 27.3356 17.5675 26.4356C17.0575 24.6 16.5438 22.7737 16.0769 20.9212C16.0281 20.715 16 20.4787 16 20.2369C16 20.0062 16.0244 19.7831 16.0731 19.5675L16.0694 19.5881C16.2606 18.6469 16.54 17.7225 16.8325 16.6031L18.9269 20.0512C18.7562 20.3325 18.5912 20.5875 18.4394 20.8519C17.9481 21.7069 18.2519 22.6387 19.1744 23.0025C20.7137 23.61 22.315 23.5106 23.9144 23.3344C24.5687 23.2537 25.1538 23.1262 25.72 22.9519L25.6469 22.9706C27.3269 22.4812 28.1106 21.075 27.5819 19.3969C27.34 18.6356 26.9237 17.9306 26.545 17.1075L29.9688 10.935L33.3363 17.0194C32.9331 18.0862 32.4513 18.9712 32.2825 19.9162C32.0012 21.4425 32.7531 22.5262 34.2344 22.9575C35.29 23.2781 36.5031 23.4619 37.7594 23.4619C38.5375 23.4619 39.2969 23.3906 40.0356 23.2556L39.9587 23.2669C41.5394 22.9912 42.3175 21.7575 41.2112 20.3906C41.1456 20.2969 41.0819 20.1862 41.0238 20.0737L41.0162 20.0569C41.6744 18.9694 42.3325 17.8687 42.9906 16.7662H43.1613C43.3394 18.3337 44.3463 19.7212 43.7594 21.4762C42.9888 23.7994 42.4263 26.19 41.7738 28.5525C41.7194 28.74 41.6556 28.9237 41.5938 29.1169Z" fill="black"/>
<path d="M41.2388 30.3094V31.9912H18V30.3094H41.2388Z" fill="black"/>
<path d="M28 31.9913V30.3056H31.7744V31.9913H28Z" fill="black"/>
<path d="M31.7556 32.0137H28V30.3131H31.7556V32.0137Z" fill="black"/>
</g>
<defs>
<clipPath id="clip0_1_19">
<rect width="60" height="60" fill="white"/>
</clipPath>
</defs>
</svg>
