<svg width="60" height="60" viewBox="0 0 71 61" fill="none" xmlns="http://www.w3.org/2000/svg">
<path d="M49.37 3.40909L48.438 4.76245L52.7641 7.92504L53.6961 6.56693L49.37 3.40909ZM39.245 4.00742L42.0294 9.39236L42.2365 9.54551L43.9393 4.75414L39.245 4.00742ZM45.8723 5.5068L43.9853 10.8253L48.6681 14.2455L52.7296 10.5012C52.6261 10.4323 52.511 10.3599 52.4074 10.2827L45.8723 5.5068ZM65.6389 8.90444C64.9946 9.46359 64.2352 9.92421 63.3953 10.2982C63.9706 15.8125 61.704 20.205 58.1948 23.3272C55.1458 26.0458 51.1879 27.8859 47.2644 29.0137C46.9768 29.5835 46.6892 30.1059 46.413 30.5689C51.1879 31.2099 57.1363 28.0521 61.2783 23.4459C63.5564 20.9173 65.2822 17.9969 66.0071 15.2308C66.6054 12.9277 66.5479 10.7885 65.6389 8.90444ZM61.3933 11.0033C60.9101 11.1221 60.4154 11.2408 59.9206 11.3239C58.2063 11.6207 56.4574 11.6919 54.9157 11.3595L50.1984 15.7057C50.6586 16.5367 50.7737 17.5695 50.7161 18.6142C50.6471 20.11 50.2214 21.7839 49.6461 23.4697C49.3009 24.455 48.9212 25.4404 48.507 26.3901C51.6021 25.2979 54.559 23.7427 56.8486 21.7127C59.8631 19.006 61.7385 15.587 61.3933 11.0033ZM42.9843 12.7022L37.0935 21.2734L40.6142 25.6066L47.3105 15.86L42.9843 12.7022ZM37.0935 21.2734L15.4318 52.8044L19.7499 55.9622L40.6142 25.6066L37.0935 21.2734Z" fill="#000"/>
<path d="M18.4271 3.40271L19.4338 4.75607L14.7608 7.91866L13.7541 6.56055L18.4271 3.40271ZM29.3637 4.00104L26.3562 9.38598L26.1325 9.53913L24.2931 4.74776L29.3637 4.00104ZM22.2052 5.50042L24.2434 10.8189L19.1852 14.2391L14.7981 10.4948C14.9099 10.4259 15.0342 10.3535 15.1461 10.2764L22.2052 5.50042ZM0.853867 8.89806C1.54984 9.45721 2.37008 9.91783 3.27733 10.2918C2.65593 15.8061 5.10424 20.1986 8.89479 23.3208C12.1882 26.0394 16.4635 27.8795 20.7014 29.0073C21.0121 29.5772 21.3228 30.0995 21.6211 30.5625C16.4635 31.2036 10.0382 28.0457 5.56408 23.4396C3.10333 20.9109 1.23913 17.9905 0.456165 15.2244C-0.19009 12.9213 -0.127949 10.7821 0.853867 8.89806ZM5.4398 10.997C5.96178 11.1157 6.49618 11.2344 7.03058 11.3175C8.88236 11.6143 10.7714 11.6855 12.4368 11.3531L17.5323 15.6993C17.0351 16.5303 16.9109 17.5631 16.973 18.6078C17.0476 20.1036 17.5074 21.7775 18.1288 23.4633C18.5016 24.4486 18.9118 25.434 19.3592 26.3837C16.016 25.2915 12.822 23.7363 10.3489 21.7063C7.09272 18.9996 5.06696 15.5806 5.4398 10.997ZM25.3246 12.6958L31.6878 21.2671L27.8848 25.6002L20.6517 15.8536L25.3246 12.6958ZM31.6878 21.2671L55.086 52.798L50.4218 55.9558L27.8848 25.6002L31.6878 21.2671Z" fill="#000"/>
</svg>
